<?xml version="1.0" standalone="no"?>
<!DOCTYPE svg PUBLIC "-//W3C//DTD SVG 20010904//EN"
 "http://www.w3.org/TR/2001/REC-SVG-20010904/DTD/svg10.dtd">
<svg version="1.0" xmlns="http://www.w3.org/2000/svg"
 width="311.000000pt" height="162.000000pt" viewBox="0 0 311.000000 162.000000"
 preserveAspectRatio="xMidYMid meet">

<g transform="translate(0.000000,162.000000) scale(0.100000,-0.100000)"
fill="#000000" stroke="none">
<path d="M1897 1013 c-4 -3 -7 -112 -7 -241 l0 -234 -67 -71 c-125 -133 -128
-137 -116 -145 8 -5 1 -21 -23 -52 -43 -56 -104 -162 -104 -181 0 -11 23 -13
129 -11 l130 3 17 47 c9 26 31 80 50 120 l33 72 315 0 314 0 20 -32 c11 -18
34 -72 53 -121 l32 -87 129 0 129 0 -6 23 c-9 28 -37 75 -89 151 -22 32 -41
66 -41 76 0 10 -40 61 -89 114 l-88 97 1 222 c1 123 -1 230 -5 240 -6 16 -35
17 -358 17 -194 0 -356 -3 -359 -7z m703 -238 l0 -214 -267 0 c-148 0 -267 -4
-266 -8 1 -4 9 -12 19 -18 58 -33 70 -60 23 -50 -22 5 -36 2 -51 -12 -20 -18
-20 -18 28 -23 33 -3 49 -10 49 -19 0 -8 -6 -16 -14 -19 -9 -3 -11 0 -5 9 6
11 5 12 -7 3 -8 -7 -39 -17 -70 -24 -55 -12 -58 -12 -84 13 -36 32 -80 41
-117 23 -15 -8 -26 -10 -22 -5 3 5 20 15 37 23 18 7 48 29 68 47 20 19 45 39
55 46 16 10 13 12 -23 12 l-43 1 0 215 0 215 345 0 345 0 0 -215z m-21 -262
c14 -16 40 -38 56 -51 17 -12 22 -19 13 -16 -20 7 -108 -32 -108 -48 0 -7 -15
-8 -42 -4 -24 4 -61 11 -83 14 -59 10 -54 36 9 42 48 5 48 5 28 23 -15 14 -29
17 -51 12 -44 -10 -39 9 12 40 56 35 128 30 166 -12z"/>
<path d="M1950 785 l0 -195 41 0 c24 0 38 4 34 10 -3 6 1 10 9 10 9 0 16 -4
16 -10 0 -6 92 -10 255 -10 l255 0 0 195 0 195 -305 0 -305 0 0 -195z m100
135 c0 -5 -4 -10 -10 -10 -5 0 -10 5 -10 10 0 6 5 10 10 10 6 0 10 -4 10 -10z
m98 3 c-16 -2 -40 -2 -55 0 -16 2 -3 4 27 4 30 0 43 -2 28 -4z m69 1 c-3 -3
-12 -4 -19 -1 -8 3 -5 6 6 6 11 1 17 -2 13 -5z m48 -34 c-3 -5 -46 -10 -95
-10 -49 0 -92 5 -95 10 -4 6 30 10 95 10 65 0 99 -4 95 -10z m160 0 c-3 -5
-28 -10 -56 -10 -27 0 -49 5 -49 10 0 6 25 10 56 10 34 0 53 -4 49 -10z m-20
-29 c-31 -12 -335 -13 -335 -1 0 6 62 10 178 9 98 0 168 -4 157 -8z m-358 -27
c-3 -3 -12 -4 -19 -1 -8 3 -5 6 6 6 11 1 17 -2 13 -5z m33 -26 c0 -4 -7 -8
-15 -8 -8 0 -15 4 -15 8 0 5 7 9 15 9 8 0 15 -4 15 -9z m-10 -28 c0 -5 -7 -10
-15 -10 -8 0 -15 5 -15 10 0 6 7 10 15 10 8 0 15 -4 15 -10z m90 -30 c0 -5
-20 -10 -45 -10 -25 0 -45 5 -45 10 0 6 20 10 45 10 25 0 45 -4 45 -10z m160
0 c0 -5 -11 -10 -25 -10 -14 0 -25 5 -25 10 0 6 11 10 25 10 14 0 25 -4 25
-10z m-160 -30 c0 -6 -27 -10 -60 -10 -33 0 -60 4 -60 10 0 6 27 10 60 10 33
0 60 -4 60 -10z m160 0 c0 -5 -11 -10 -25 -10 -14 0 -25 5 -25 10 0 6 11 10
25 10 14 0 25 -4 25 -10z m-160 -30 c0 -5 -20 -10 -45 -10 -25 0 -45 5 -45 10
0 6 20 10 45 10 25 0 45 -4 45 -10z m-90 -30 c0 -5 -7 -10 -15 -10 -8 0 -15 5
-15 10 0 6 7 10 15 10 8 0 15 -4 15 -10z"/>
<path d="M2008 553 c7 -3 16 -2 19 1 4 3 -2 6 -13 5 -11 0 -14 -3 -6 -6z"/>
<path d="M667 864 c-4 -4 -7 -14 -7 -23 0 -14 2 -14 10 -1 8 12 10 12 11 -5 0
-11 3 -15 5 -8 7 15 -10 46 -19 37z"/>
<path d="M978 858 c7 -7 12 -29 12 -50 0 -21 5 -38 10 -38 6 0 10 17 10 38 0
21 5 43 12 50 9 9 4 12 -22 12 -26 0 -31 -3 -22 -12z"/>
<path d="M720 846 c0 -8 4 -17 9 -20 5 -4 7 3 4 14 -6 23 -13 26 -13 6z"/>
<path d="M1112 813 c3 -44 5 -48 28 -48 21 0 26 5 28 33 3 27 -1 35 -17 39
-12 3 -21 9 -21 14 0 5 -5 9 -11 9 -6 0 -9 -19 -7 -47z m39 -26 c-17 -17 -34
12 -19 31 10 11 13 10 21 -3 6 -11 5 -21 -2 -28z"/>
<path d="M1193 815 c0 -27 2 -38 4 -22 2 15 2 37 0 50 -2 12 -4 0 -4 -28z"/>
<path d="M1050 831 c0 -6 6 -11 13 -11 6 0 4 -5 -5 -11 -21 -11 -23 -34 -6
-45 8 -5 9 -2 5 9 -3 9 -2 19 3 22 6 4 10 -4 10 -16 0 -17 3 -20 11 -12 16 16
7 67 -13 71 -10 2 -18 -1 -18 -7z"/>
<path d="M1230 825 c-16 -19 1 -65 24 -65 23 0 28 17 7 23 -20 5 -24 31 -6 34
6 0 9 -3 8 -8 -2 -5 2 -9 8 -9 16 0 6 34 -12 38 -9 1 -22 -4 -29 -13z"/>
<path d="M651 813 c-1 -6 -4 -20 -7 -30 -5 -17 -5 -17 6 0 6 10 9 23 6 30 -3
9 -5 9 -5 0z"/>
<path d="M768 793 c5 -21 7 -23 10 -9 2 10 0 22 -6 28 -6 6 -7 0 -4 -19z"/>
<path d="M691 794 c0 -11 3 -14 6 -6 3 7 2 16 -1 19 -3 4 -6 -2 -5 -13z"/>
<path d="M1138 73 c56 -2 148 -2 205 0 56 1 10 3 -103 3 -113 0 -159 -2 -102
-3z"/>
</g>
</svg>
