<?xml version="1.0" standalone="no"?>
<!DOCTYPE svg PUBLIC "-//W3C//DTD SVG 20010904//EN"
 "http://www.w3.org/TR/2001/REC-SVG-20010904/DTD/svg10.dtd">
<svg version="1.0" xmlns="http://www.w3.org/2000/svg"
 width="512.000000pt" height="512.000000pt" viewBox="0 0 512.000000 512.000000"
 preserveAspectRatio="xMidYMid meet">

<g transform="translate(0.000000,512.000000) scale(0.100000,-0.100000)"
fill="#000000" stroke="none">
<path d="M454 4834 c-43 -21 -69 -73 -93 -184 -22 -101 -42 -137 -85 -158 -24
-12 -46 -47 -46 -73 0 -5 11 -14 25 -21 39 -18 44 -51 22 -167 -10 -58 -16
-119 -12 -137 8 -44 47 -74 96 -74 45 0 69 21 69 61 0 24 -4 29 -25 29 -36 0
-40 20 -21 113 25 126 20 172 -23 204 -9 6 -14 13 -11 15 3 2 17 12 32 21 37
23 65 81 84 175 19 92 34 120 71 124 30 3 51 42 40 72 -8 21 -80 21 -123 0z"/>
<path d="M3560 4611 c-5 -11 -10 -33 -10 -50 l0 -31 110 0 c121 0 130 5 130
69 l0 31 -110 0 c-98 0 -110 -2 -120 -19z"/>
<path d="M2212 4318 c-13 -17 -85 -435 -77 -448 8 -13 82 -13 90 0 12 19 105
442 100 451 -9 14 -101 11 -113 -3z"/>
<path d="M3030 3854 c-93 -40 -161 -171 -159 -302 1 -87 54 -152 124 -152 36
0 134 46 142 66 10 27 19 14 15 -21 -4 -35 -4 -35 36 -35 22 0 44 6 50 13 13
15 94 416 86 428 -6 11 -65 12 -80 1 -6 -4 -14 -16 -17 -26 -7 -18 -8 -18 -30
2 -46 43 -106 52 -167 26z m134 -105 c24 -19 27 -26 21 -63 -15 -93 -85 -186
-140 -186 -43 0 -58 27 -53 95 12 139 95 214 172 154z"/>
<path d="M2111 3791 c-24 -24 -36 -88 -20 -107 16 -19 72 -18 98 4 26 21 39
85 21 107 -17 21 -76 19 -99 -4z"/>
<path d="M1492 3593 c-20 -18 -32 -39 -157 -278 -115 -221 -257 -490 -296
-562 -24 -43 -29 -64 -29 -122 l0 -71 56 0 c30 0 64 5 75 10 10 6 44 60 74
120 l55 110 189 0 189 0 6 -57 c22 -190 18 -183 120 -183 106 0 113 8 98 106
-6 44 -18 129 -27 189 -8 61 -20 142 -25 180 -17 113 -51 353 -64 454 -10 70
-18 97 -31 107 -30 22 -207 19 -233 -3z m128 -546 c6 -44 9 -81 7 -83 -2 -3
-65 -3 -139 -2 l-135 3 101 205 c55 113 106 208 111 212 6 5 16 -41 27 -125 9
-73 22 -167 28 -210z"/>
<path d="M4493 3208 c-11 -13 -87 -111 -168 -218 -82 -107 -170 -223 -197
-258 -45 -59 -48 -67 -48 -123 0 -52 2 -59 20 -59 28 0 16 -15 364 445 71 94
137 179 147 191 32 35 24 44 -39 44 -48 0 -62 -4 -79 -22z"/>
<path d="M2813 3078 c-4 -7 -15 -38 -23 -68 -11 -40 -20 -56 -35 -58 -123 -21
-196 -92 -211 -206 -13 -89 32 -155 140 -207 79 -38 106 -65 106 -104 0 -66
-58 -105 -158 -105 -44 0 -71 6 -106 25 l-47 25 -9 -26 c-26 -68 -4 -118 58
-130 18 -4 35 -10 38 -15 2 -5 -2 -36 -11 -69 -18 -69 -15 -80 23 -80 41 0 49
10 67 82 l17 66 48 7 c110 15 204 107 216 212 12 100 -24 156 -136 213 -43 22
-86 50 -94 62 -34 48 -11 109 50 134 46 19 70 17 139 -11 69 -28 77 -24 73 45
-3 42 -5 46 -46 65 -42 19 -43 21 -36 55 4 19 8 49 8 65 1 27 -3 30 -31 33
-18 2 -35 -2 -40 -10z"/>
<path d="M387 2903 c-4 -3 -7 -22 -8 -42 -1 -20 -4 -46 -7 -59 -7 -23 -7 -23
-41 12 -19 20 -40 36 -47 36 -15 0 -54 -47 -54 -65 0 -7 24 -21 53 -33 l52
-20 -40 -17 c-22 -10 -50 -21 -62 -26 -25 -9 -30 -38 -13 -70 15 -26 24 -24
77 16 25 19 48 33 50 31 2 -2 -5 -28 -16 -57 -12 -30 -17 -57 -12 -62 5 -5 24
-7 42 -5 33 3 34 4 44 66 l10 63 34 -35 c19 -20 40 -36 47 -36 15 0 54 47 54
64 0 7 -23 23 -52 37 l-52 26 54 18 c70 22 78 30 72 60 -9 49 -28 51 -85 12
-28 -20 -53 -35 -55 -33 -1 2 6 27 18 55 11 29 18 57 15 62 -7 10 -68 12 -78
2z"/>
<path d="M3420 2111 c-53 -17 -109 -51 -135 -83 -96 -113 -148 -394 -89 -475
34 -47 80 -65 154 -60 134 8 221 92 235 229 14 123 -94 191 -227 144 -32 -12
-38 -12 -38 0 0 31 45 107 78 132 30 23 44 27 96 25 34 -1 72 -3 85 -5 21 -2
27 3 35 30 14 49 -5 62 -95 67 -41 3 -85 1 -99 -4z m25 -335 c27 -19 24 -82
-5 -134 -34 -61 -99 -82 -134 -43 -13 15 -16 34 -14 87 3 68 4 69 38 86 42 22
89 23 115 4z"/>
<path d="M3774 2102 c-13 -8 -77 -312 -68 -321 3 -3 46 -6 96 -6 83 0 91 -2
110 -25 22 -27 19 -66 -8 -108 -32 -49 -128 -66 -209 -37 -47 17 -57 10 -59
-41 -1 -46 22 -61 111 -70 164 -17 294 72 309 213 10 97 -47 152 -168 161 -65
4 -69 6 -64 26 3 12 8 40 12 64 l7 42 113 0 c127 0 134 4 134 74 l0 36 -152 0
c-84 0 -158 -4 -164 -8z"/>
<path d="M1036 2027 c-166 -172 -522 -561 -524 -573 -3 -10 7 -14 32 -14 27 0
45 8 71 33 77 72 553 592 549 599 -3 5 -22 8 -42 8 -30 0 -44 -8 -86 -53z"/>
<path d="M650 2059 c-43 -18 -80 -61 -95 -113 -30 -100 -12 -166 51 -186 116
-39 216 47 218 186 1 56 -2 67 -26 90 -30 30 -104 42 -148 23z m86 -84 c8 -34
-14 -120 -36 -140 -23 -21 -64 -16 -68 9 -7 34 9 104 29 130 27 34 66 35 75 1z"/>
<path d="M1743 1954 c-85 -70 -92 -78 -102 -125 -21 -98 -12 -104 80 -49 38
24 73 40 76 36 4 -3 -1 -54 -10 -114 -9 -59 -30 -197 -47 -307 -17 -110 -32
-206 -35 -212 -3 -9 -28 -13 -78 -13 l-75 0 -11 -44 c-6 -25 -11 -61 -11 -80
l0 -36 220 0 219 0 10 38 c6 20 11 56 11 80 l0 42 -65 0 c-61 0 -65 1 -65 23
0 12 14 114 30 227 17 113 37 255 45 315 8 61 20 137 25 170 6 33 13 75 16 93
l5 32 -73 -1 -73 0 -92 -75z"/>
<path d="M940 1748 c-57 -30 -83 -80 -88 -169 -4 -58 -1 -69 20 -93 33 -39 98
-46 162 -18 39 18 50 29 71 74 27 57 34 143 14 180 -13 23 -67 48 -107 48 -15
0 -48 -10 -72 -22z m98 -100 c4 -61 -21 -116 -56 -125 -28 -7 -55 19 -48 46 2
9 7 32 10 52 8 44 41 81 69 77 19 -3 22 -11 25 -50z"/>
<path d="M1483 1443 c15 -2 37 -2 50 0 12 2 0 4 -28 4 -27 0 -38 -2 -22 -4z"/>
<path d="M4586 1234 c-16 -41 -7 -54 34 -54 22 0 40 -5 40 -10 0 -9 -99 -413
-131 -532 -9 -35 -13 -38 -44 -38 -32 0 -35 -2 -35 -30 l0 -30 84 0 84 0 11
33 c21 65 161 635 161 656 0 20 -5 21 -99 21 -81 0 -100 -3 -105 -16z"/>
<path d="M597 953 c-4 -6 94 -664 118 -790 6 -32 7 -33 56 -33 31 0 51 5 54
13 2 6 -24 192 -58 412 l-63 400 -51 3 c-28 2 -53 -1 -56 -5z"/>
<path d="M2342 778 c-11 -15 -62 -257 -62 -298 l0 -28 91 2 c85 1 92 0 111
-24 15 -18 18 -33 14 -59 -13 -85 -117 -124 -226 -86 -23 8 -44 15 -46 15 -3
0 -24 -70 -24 -82 0 -4 15 -15 33 -25 45 -24 186 -24 249 0 59 23 123 91 138
148 36 131 -33 209 -185 209 -42 0 -45 2 -40 23 3 12 9 40 13 62 l8 40 114 5
115 5 13 39 c7 22 10 46 8 53 -7 18 -309 19 -324 1z"/>
</g>
</svg>
