<?xml version="1.0" encoding="UTF-8"?>
<svg version="1.1" viewBox="0 0 2031 2048" width="736" height="742" xmlns="http://www.w3.org/2000/svg">
<path transform="translate(0)" d="m0 0h2031v2048h-2031z" fill="#A48FD4"/>
<path transform="translate(501,290)" d="m0 0h1008l1 1v984l-30 5-22 6-22 9-19 10-18 12-10 8-10 9-16 16-12 16-13 21-11 23-8 24-5 24-2 18v34l4 26 7 25 10 24 10 18 11 16 9 11 9 10 12 12 14 11 10 7 2 1v3h-910v-1383z" fill="#FDE77F"/>
<path transform="translate(483,258)" d="m0 0h1049l5 3 5 7 1 3v1e3l14 1 27 6 27 9 16 8 16 9 14 10 10 8 12 11 7 7 9 11 11 15 12 21 8 16 10 30 5 25 1 10v36l-2 17-5 24-8 23-8 17-8 14-12 18-9 10-7 8-12 12-11 9-10 8-4 3h-2v2h52l6 3 5 6 2 5-1 9-8 9-3 1h-301l-1082-1-8-4-3-5v-13l7-8 12-2h146v-1402l2-7 5-4zm18 32-1 1v1383h910v-3l-11-7-13-11-8-7-13-13-11-14-9-13-12-21-8-19-6-18-5-23-2-15v-34l3-24 6-25 8-22 10-20 12-19 10-13 9-10 16-16 17-13 21-13 21-10 20-7 20-5 25-4v-984l-1-1z" fill="#646577"/>
<path transform="translate(1508,1307)" d="m0 0h37l23 4 21 6 21 9 17 10 17 13 13 12 9 9 10 13 11 17 11 23 6 19 5 25 1 9v30l-3 20-6 23-9 22-9 16-12 17-11 12-7 8-8 7-13 10-13 8-12 7-20 8-21 6-23 4h-30l-22-3-19-5-19-7-23-12-14-10-11-9-19-19-10-13-10-16-11-23-5-15-5-23-2-19v-23l3-23 6-22 6-16 11-21 12-17 11-13 15-15 13-10 14-9 25-12 18-6 24-5z" fill="#A6FCED"/>
<path transform="translate(637,391)" d="m0 0h736l1 1v101h-737l-1-5v-96z" fill="#A6FCED"/>
<path transform="translate(620,359)" d="m0 0h772l8 4 5 6 1 3v140l-5 9-8 4h-775l-7-3-5-5-1-2-1-33v-82l1-31 8-8zm17 32-1 1v96l1 5h737v-101l-1-1z" fill="#646577"/>
<path transform="translate(0)" d="m0 0h2031v193h-2l-8-22-7-13-10-15-12-19-10-13-7-9-11-11-10-8-10-9-10-10-16-11-24-13-11-7-11-5-37-12-14-4-8-2-1528-1-44-1-5-1-32 8-15 6-33 15-19 10-19 12-12 8-10 9-12 11-11 11-7 8-8 10-9 10-12 21-12 20-10 22-11 29-2 3h-2z" fill="#FEE77F"/>
<path transform="translate(461,1771)" d="m0 0h1090l8 4 4 5 2 5-1 9-7 8-5 2h-1094l-6-3-4-5-1-3v-11l4-6 6-4z" fill="#646577"/>
<path transform="translate(843,955)" d="m0 0h569l6 3 6 7 1 9-4 8-5 4-7 2h-564l-8-3-6-7-1-3v-7l3-6 7-6z" fill="#636476"/>
<path transform="translate(841,1211)" d="m0 0h573l5 3 4 4 2 6-1 9-5 7-6 3h-570l-7-3-5-6-1-3v-8l3-6 6-5z" fill="#636476"/>
<path transform="translate(841,700)" d="m0 0h573l6 4 4 6 1 9-3 6-7 6-5 1h-567l-7-3-5-6-1-3v-8l3-6 6-5z" fill="#636476"/>
<path transform="translate(1434,1386)" d="m0 0h7l8 4 76 76 4-1 75-75 8-4 9 1 6 4 4 8-1 9-7 9-17 17h-2v2h-2l-2 4-6 5-7 8-10 9-15 16-8 7-4 5 6 7 72 72 3 7-1 9-4 6-5 3h-11l-9-6-73-73-4 1-29 29-8 7-11 12-9 8-7 8-9 9-7 5h-12l-7-6-3-7 1-8 6-8 74-74-3-5-5-4v-2h-2l-6-7-3-2v-2l-4-2-5-6-2-1v-2h-2l-7-8-11-11-2-1v-2h-2l-7-8-17-17-3-7 2-10 4-5z" fill="#646577"/>
<path transform="translate(0,1834)" d="m0 0 2 2 8 24 7 16 5 13 7 13 8 11 10 16 9 13 13 17 7 10 11 9 12 11 13 11 17 12 25 15 17 8 16 6 18 6v1h-205z" fill="#FEE77F"/>
<path transform="translate(845,1466)" d="m0 0h376l8 3 5 7 1 3v7l-3 6-7 6-4 1h-373l-10-2-5-5-3-6v-7l3-6 7-6z" fill="#636476"/>
<path transform="translate(1617,258)" d="m0 0h9l6 4 5 6v364l-5 7-10 4-9-2-6-5-2-4v-363l4-6 5-4z" fill="#636476"/>
<path transform="translate(386,1171)" d="m0 0h7l6 3 5 6 1 2v361l-3 6-6 5-9 2-8-4-4-4-2-8v-356l3-7 7-5z" fill="#636476"/>
<path transform="translate(2029,1879)" d="m0 0h2v169h-186l4-3 20-8 22-12 14-8 15-8 12-9 10-9 8-7 10-8 10-9 9-11 8-10 14-19 9-14 9-17 4-9z" fill="#FEE77F"/>
<path transform="translate(762,1152)" d="m0 0h9l6 4 4 5 2 9-5 10-117 117-8 5h-9l-9-6-47-47-2-4v-10l4-6 6-5 8-1 10 5 34 34 7-6 43-43 1-2h2l2-4 12-11 39-39z" fill="#636476"/>
<path transform="translate(762,641)" d="m0 0h8l6 3 5 6 1 2v10l-6 9-115 115-8 5h-9l-9-6-46-46-3-5v-10l4-7 6-4 9-1 9 5 34 34 7-6 101-101z" fill="#636476"/>
<path transform="translate(764,896)" d="m0 0 10 2 5 4 3 6v9l-4 7-120 120-6 3-9-1-6-4-17-16-6-6v-2l-4-2-15-15-8-10-1-2v-10l4-6 5-4 2-1h9l7 4 34 34 5-2 105-105z" fill="#636477"/>
<path transform="translate(763,1407)" d="m0 0 10 1 8 7 2 9-3 8-7 8-114 114-8 4-8-1-8-6-42-42-6-7-1-3v-8l3-6 5-5 3-1h10l8 6 33 33 7-6 14-15 14-14h2v-2l8-7 63-63z" fill="#646477"/>
<path transform="translate(1395,955)" d="m0 0h17l6 3 6 7 1 9-4 8-5 4-7 2h-564l-8-3-6-7-1-3v-7l3-6 7-6 2 1-5 4-1 4h-2l-1 9 1 4h2l3 3v2l4 1v1l566 1 1-3 7-4 3-4v-8l-5-5-5-1h-513l-1-2-8-1v-2z" fill="#59586B"/>
<path transform="translate(1372,359)" d="m0 0h20l8 4 5 6v22l-2-4-2-12-3-6-4-4-9-3h-54l-18 2-82 1h-477l-46-1-22-2v-2z" fill="#575569"/>
<path transform="translate(766,286)" d="m0 0h470l120 1 22 1h22l38-1h49l10 1 2 2h-990v-1l16-2h93z" fill="#575569"/>
<path transform="translate(1165,1466)" d="m0 0h56l8 3 5 7 1 3v7l-3 6-7 6-4 1h-373l-6-2 2-1 373 1v-2l2 1 1 1v-3l8-4 2-2v-12l-4-2-1-2h-333l-11-1v-2l-4 1-4-1h-23v-2z" fill="#59586C"/>
<path transform="translate(1360,700)" d="m0 0h54l6 4 4 6 1 9-3 6-7 6-5 1h-546v-1l188-1 3-1v2l8-1 3-1v2h21l1-2v2h10l1-2v2l8-1 3-1v2l11-1 10 1 1-2v2h10l1-2v2l36-1 3-1v2l173-1 6-2h14 2 31l8-4 3-5 1-5-3-7-2-1v-2l-7-1-3 1h-10l-11-1h-389l-103-1v-1z" fill="#575569"/>
<path transform="translate(1e3 1211)" d="m0 0h409l5 3 4 4 2 6-1 9-5 7-6 3h-528v-1l486-1 19-1 9-1 6 1 9-3 6-6v-9l-1-3-4-2-2-3-486-1v-1z" fill="#58566A"/>
<path transform="translate(499,290)" d="m0 0h1l-1 1359h-1l-1-24v-1322z" fill="#575569"/>
<path transform="translate(764,896)" d="m0 0 10 2 5 4 3 6v9l-4 7-120 120-6 3-9-1-5-3v-2l5 1v2l10-1 7-6 4-5 5-2 1-3h2v-3h2v-2l4-1v-2l4-1 1-5h2l1-3 5-3 2-4 3-1 1-3 7-6 1-2h2l1-3h2l1-3 5-5h2l1-3 5-3h2l1-5 3-3h2l1-3 5-5 8-7 6-7h2l1-3 8-8 6-4 2-4 5-5h2v-12l-2-5-5-2-1-1h-7l-8 6-3 1-1 3-8 7-8 9h-2l-2 4-12 11-66 66-3 2-4-1-8-7-10-10-1-3-4-2-5-4v-2l-4-2-7-6-8-1 1-3 9 1 10 9 28 28 5-2 105-105z" fill="#57556A"/>
<path transform="translate(869,493)" d="m0 0h371l13 1v1l-13 1h-390l1-2z" fill="#59576B"/>
<path transform="translate(840,956)" d="m0 0 2 1-5 4-1 4h-2l-1 9 1 4h2l3 3v2l4 1v1l564 1v1h-566l-6-4-4-5-1-3v-7l3-6z" fill="#575569"/>
<path transform="translate(1382,700)" d="m0 0h32l6 4 4 6 1 9-3 6-7 6-5 1h-57l3-3 8-1h11 2 31l8-4 3-5 1-5-3-7-2-1v-2l-7-1-3 1h-10l-11-1v-2z" fill="#58566A"/>
<path transform="translate(752,648)" d="m0 0 2 1-93 93-7 8-6 4-10-8-7-8-8-7v-2l-3-1v-2l-4-2-8-6-3-3v-2l4 1 8 6 31 31 7-6z" fill="#5D5D70"/>
<path transform="translate(761,1408)" d="m0 0h7l-1 2-6 2-8 6-99 99-2-1 100-100 4-5z" fill="#575569"/>
<path transform="translate(776,1411)" d="m0 0 5 4 2 9-3 8-7 8-48 48v-3l8-8 2-3 4-5 6-5 5-4 4-6h2l2-4h2l2-4 3-3 6-4 6-7 1-2v-12l-2-4z" fill="#575569"/>
<path transform="translate(1320,1211)" d="m0 0h91l2 2-17 1-78-1z" fill="#575569"/>
<path transform="translate(1357,1359)" d="m0 0 1 2-6 8-11 17-8 16-8 20-3 10h-2l1-8 8-21 12-23 12-18z" fill="#59576B"/>
<path transform="translate(710,733)" d="m0 0h2l-2 4-49 49-6 4h-6l3-3 3-1v-2l6-2 3-3h2l2-4 3-3 2-3 7-6h2l1-3h2l1-3h2l2-4 3-4 2-2 1-2 5-3 7-7h2z" fill="#5B5A6D"/>
<path transform="translate(588,736)" d="m0 0 3 1 4 5 2 1v2h3v2l4 2 4 5 5 6 5 3 11 11v2l4 2 5 4v2l3 1 4 5-5-1-10-9-41-41z" fill="#59586C"/>
<path transform="translate(599,1223)" d="m0 0 8 1 9 6 32 32v2h-2l-6-7-8-7-11-11-10-8-7-4v-2l-8 3-6 5-1 2h-2l2-5 7-6z" fill="#5A596C"/>
<path transform="translate(605,713)" d="m0 0 4 1 8 6 31 31 7-6 3-3h2l-2 4-9 8-6-4-5-4-7-8-8-7v-2l-3-1v-2l-4-2-8-6-3-3z" fill="#5B596D"/>
<path transform="translate(592,1482)" d="m0 0 2 1-3 3-2 9v7l3 1 4 6 6 5v2l5 2 3 4v2h2l7 8 14 14 2 1v2l4 2 2 4-5-3-43-43-6-7-1-3v-8l3-6z" fill="#58566A"/>
<path transform="translate(845,1466)" d="m0 0h48v1l-43 1-10 4-7 7v6l5 8 3 1 2 4-7-2-5-7-1-3v-7l3-6 7-6z" fill="#65617B"/>
<path transform="translate(766,1152)" d="m0 0 7 1 7 6 3 8-1 6-6 9-11 11-3-1v-3l3-1v-2l4-3 4-5h2v-2h3v-12l-6-8h-4v-2l-3-1z" fill="#58576A"/>
<path transform="translate(597,1479)" d="m0 0h10l8 6 35 35h-4v-2l-4-2-17-17-2-1v-2h-2l-5-5-10-9-6-1-5 1z" fill="#57556A"/>
<path transform="translate(591,994)" d="m0 0 5 3 5 5 1 3h2l9 9v2l3 1v2l3 1v2l4 2 5 6 10 10-1 2-17-16-6-6v-2l-4-2-15-15-4-5z" fill="#686281"/>
<path transform="translate(765,642)" d="m0 0h8l7 6 2 4v10l-6 9-14 14h-2l2-4 11-11 2-4 3-1v-13l-5-6-5-1z" fill="#59576B"/>
<path transform="translate(589,1247)" d="m0 0 5 5 7 6 3 3 1 3h3l3 3v2h2l3 5 14 14 8 7 2 1v2l4 2-2 1-8-6-45-45z" fill="#5C5B6E"/>
<path transform="translate(1398,1317)" d="m0 0m-2 1 2 1-2 3h-2v2l-8 7-10 9-15 16-3 1 2-4 9-10 17-17z" fill="#5B596F"/>
<path transform="translate(841,1211)" d="m0 0h35v1l-30 1-8 1-2 4-3 5v8l2 5 6 2 1 2 5 1v1h-8l-7-6-2-5v-8l3-6 6-5z" fill="#59586B"/>
<path transform="translate(386,1171)" d="m0 0h7l6 3 5 6v5l-5-5-2-3-6-3-7 1-5 3-1 2h-2l-1 27h-1v-27l4-5z" fill="#59586B"/>
<path transform="translate(1404,495)" d="m0 0h1v20l-4 6-5 3h-31v-1l22-1 11-5 3-4 1-6h1z" fill="#59566C"/>
<path transform="translate(620,359)" d="m0 0h22l44 1-4 2h-62l-6 3-2-1 3-4z" fill="#66607E"/>
<path transform="translate(840,956)" d="m0 0 2 1-5 4-1 4h-2l-1 9 1 4h2l3 3v2l4 1v3l-6-2-6-7-1-3v-7l3-6z" fill="#59586C"/>
<path transform="translate(1382,700)" d="m0 0h32v1l-9 3h-10l-11-1v-2z" fill="#5A596D"/>
<path transform="translate(843,955)" d="m0 0h33l12 1v1l-43 1-5 1z" fill="#756B92"/>
<path transform="translate(835,706)" d="m0 0v3l-2 3v8l1 4 5 2 4 3 10 1v1h-14l-7-6-2-5v-8l1-3z" fill="#59576B"/>
<path transform="translate(1320,1433)" d="m0 0 1 4-4 15-3 20h-1v-14l5-24z" fill="#5A596C"/>
<path transform="translate(748,1163)" d="m0 0 2 1-8 9h-2v2l-8 7-19 19v-3z" fill="#5D5C6F"/>
<path transform="translate(705,1505)" d="m0 0 2 1-24 24-1-2 4-6 5-5 4-3 3-3z" fill="#575569"/>
<path transform="translate(669,1541)" d="m0 0 2 1-12 12-8 4h-5l-1-2 9-3 5-5h2v-2h3z" fill="#59586C"/>
<path transform="translate(775,1176)" d="m0 0h4l-2 5-12 12-3-1v-3l3-1v-2l4-3 4-5h2z" fill="#5A586C"/>
<path transform="translate(776,1411)" d="m0 0 5 4 2 9-3 8-4 4 1-4 1-2v-12l-2-4z" fill="#5B596E"/>
<path transform="translate(1436,1328)" d="m0 0h2v2l-14 8-13 10-4 3-2-1 4-2 1-3 16-11z" fill="#5A596C"/>
<path transform="translate(1960,89)" d="m0 0 5 2 14 14 3 4-1 2-21-21z" fill="#726E8B"/>
<path transform="translate(1910,49)" d="m0 0 5 1 12 8 10 8 1 2-5-2-10-8-13-8z" fill="#75708F"/>
<path transform="translate(1622,259)" d="m0 0h6l8 7 1 2v10h-1l-2-8-5-7-7-3z" fill="#59586B"/>
<path transform="translate(664,1290)" d="m0 0h2l-2 4-9 7-4-1 4-5 6-2z" fill="#59576B"/>
<path transform="translate(664,779)" d="m0 0h2l-2 4-9 7h-6l3-3 3-1v-2l6-2z" fill="#59576B"/>
<path transform="translate(596,713)" d="m0 0 2 1v3l-6 3-3 5-2 5h-1l1-9 4-5z" fill="#5A586D"/>
<path transform="translate(841,700)" d="m0 0h34l1 2h-28l-9 1v-2z" fill="#58566A"/>
<path transform="translate(830,1484)" d="m0 0 3 1 5 8 3 1 2 4-7-2-5-7z" fill="#5E5B72"/>
<path transform="translate(625,1284)" d="m0 0h2l7 8 6 4v2l4 2-2 1-8-6-9-9z" fill="#5D5C70"/>
<path transform="translate(595,969)" d="m0 0h3v2l-5 2v2h-2l-1 4-1 2h-2l1-6z" fill="#5C5970"/>
<path transform="translate(592,1482)" d="m0 0 2 1-3 3-3 13h-2v-8l3-6z" fill="#5C5A6F"/>
<path transform="translate(1419,1303)" d="m0 0 2 1-4 4-7 4-5 2 1-3z" fill="#59586B"/>
<path transform="translate(760,1153)" d="m0 0h4v3l-6 3-5 4-2-1 7-8z" fill="#58566A"/>
<path transform="translate(1398,1317)" d="m0 0m-2 1 2 1-2 3h-2v2l-8 7h-3l9-10z" fill="#5A586D"/>
<path transform="translate(1234,493)" d="m0 0 19 1v1l-13 1h-6z" fill="#58566A"/>
<path transform="translate(1438,1293)" d="m0 0h3v2l-11 5h-2v2l-3-1 3-3z" fill="#59586B"/>
<path transform="translate(1456,1286)" d="m0 0h2v2l-5 2h-3v2l-8 2 1-3z" fill="#59586B"/>
<path transform="translate(596,1224)" d="m0 0 2 1-5 5-4 5h-2l2-5z" fill="#58566A"/>
<path transform="translate(613,361)" d="m0 0 2 1-7 8-1 5-2-1v-5z" fill="#5F5C73"/>
<path transform="translate(1346,1606)" d="m0 0 4 4 6 9h-3l-7-10z" fill="#605D74"/>
<path transform="translate(1357,1359)" d="m0 0 1 2-6 8-4 2 2-5 5-5z" fill="#5B596E"/>
<path transform="translate(835,1237)" d="m0 0 6 1 1 2 5 1v1h-8l-4-3z" fill="#59586C"/>
<path transform="translate(638,1041)" d="m0 0 5 1v2l9 2v1l-9-1-5-3z" fill="#5B5A6E"/>
<path transform="translate(839,1212)" d="m0 0 2 1-3 1-2 4-4 4-1-2 6-7z" fill="#5A586C"/>
</svg>
